<svg xmlns="http://www.w3.org/2000/svg" width="106.945" height="104.502" viewBox="0 0 106.945 104.502">
  <g id="bath_ico" data-name="bath ico" transform="translate(-439.267 -1257.074)">
    <path id="path12" d="M61.807,74.489c-.263.155-40.1-.547-40.366-.712S.635,37.093.63,36.771,19.922.632,20.185.476s40.1.547,40.366.712S81.357,37.872,81.362,38.194,62.07,74.332,61.807,74.489Z" transform="translate(475.978 1256.366) rotate(30)" fill="#fff"/>
    <path id="Pfad_94" data-name="Pfad 94" d="M47.056,28.028H7.1V5.406a2.724,2.724,0,0,1,.78-1.919,2.622,2.622,0,0,1,3.194-.431c-1.939,2.411-2.263,5.36-.657,7a.876.876,0,0,0,1.255,0l7.533-7.678a.917.917,0,0,0,0-1.279A3.883,3.883,0,0,0,15.528.164a7.389,7.389,0,0,0-3.162,1.6,4.372,4.372,0,0,0-5.74.449,4.54,4.54,0,0,0-1.3,3.2V28.028H.888a.905.905,0,0,0,0,1.81h1.16L7.16,43.729a.889.889,0,0,0,.831.586h.888v.9a.888.888,0,1,0,1.776,0v-.9H37.29v.9a.888.888,0,1,0,1.776,0v-.9h.888a.891.891,0,0,0,.832-.586L45.9,29.838h1.161a.905.905,0,0,0,0-1.81Z" transform="translate(470.594 1286.373)" fill="#129bdb"/>
    <path id="Pfad_95" data-name="Pfad 95" d="M10.63,8.6a.854.854,0,0,0,0,1.209l1.209,1.21a.855.855,0,1,0,1.209-1.209L11.84,8.6a.854.854,0,0,0-1.209,0Zm5.513-.214L14.934,7.18a.855.855,0,1,0-1.209,1.209L14.934,9.6a.855.855,0,0,0,1.209-1.209ZM14.934,4.76l1.209,1.21a.855.855,0,0,0,1.209-1.209l-1.209-1.21A.855.855,0,1,0,14.934,4.76Zm0,7.257a.855.855,0,1,0-1.209,1.209l1.209,1.21a.855.855,0,0,0,1.209-1.209l-1.209-1.21ZM19.772,9.6a.855.855,0,1,0,1.209-1.209L19.772,7.18a.855.855,0,0,0-1.209,1.209L19.772,9.6Zm-2.419,2.419,1.209,1.209a.855.855,0,0,0,1.209-1.209l-1.209-1.209a.855.855,0,0,0-1.209,1.209Z" transform="translate(474.859 1287.489)" fill="#129bdb"/>
  </g>
</svg>
