<svg xmlns="http://www.w3.org/2000/svg" width="104.945" height="101.524" viewBox="0 0 104.945 101.524">
  <g id="bug_ico" data-name="bug ico" transform="translate(-799.9 -1208.857)">
    <path id="path12" d="M59.975,70.608c-.265.156-39.86.38-40.123.227S-.01,35.974-.008,35.664,19.99.422,20.255.265s39.86-.38,40.123-.227S80.24,34.9,80.238,35.209,60.24,70.451,59.975,70.608Z" transform="translate(835.351 1208.872) rotate(30)" fill="#fff"/>
    <path id="Pfad_96" data-name="Pfad 96" d="M36.881,24.444,35.267,22.83a.8.8,0,0,0-.57-.236h-4.16a21.592,21.592,0,0,0-1.729-6.572L34.892,14.5a.806.806,0,0,0,.612-.783V8.876a.807.807,0,1,0-1.614,0v4.211l-5.826,1.456A14.112,14.112,0,0,0,24.1,9.952,5.613,5.613,0,0,0,23.35,5.9a.793.793,0,0,0,.05-.251c0-2.235,2.648-4.035,4.841-4.035a.807.807,0,1,0,0-1.614A6.7,6.7,0,0,0,21.97,4.385a5.605,5.605,0,0,0-6.822,0A6.7,6.7,0,0,0,8.876,0a.807.807,0,0,0,0,1.614c2.193,0,4.841,1.8,4.841,4.035a.809.809,0,0,0,.05.25,5.616,5.616,0,0,0-.857,2.977,5.708,5.708,0,0,0,.1,1.076,14.1,14.1,0,0,0-3.959,4.592L3.228,13.087V8.876a.807.807,0,1,0-1.614,0v4.841a.806.806,0,0,0,.611.783L8.31,16.021a21.577,21.577,0,0,0-1.728,6.572H2.421a.8.8,0,0,0-.57.236L.236,24.444a.807.807,0,1,0,1.141,1.141l1.377-1.377H6.475c-.009.269-.02.537-.02.807a23.566,23.566,0,0,0,.173,2.747c-.018.023-.043.039-.059.065L1.728,35.895a.806.806,0,0,0-.073.671l1.614,4.841A.807.807,0,1,0,4.8,40.9L3.3,36.407l3.733-6.222C8.6,37.006,13.174,41.959,18.559,41.959s9.956-4.953,11.522-11.774l3.734,6.222-1.5,4.489a.806.806,0,1,0,1.53.511l1.614-4.841a.8.8,0,0,0-.073-.671l-4.841-8.069a.869.869,0,0,0-.059-.065,23.407,23.407,0,0,0,.174-2.747c0-.27-.011-.538-.02-.807h3.721l1.377,1.377a.807.807,0,1,0,1.141-1.141ZM19.366,36.311a.807.807,0,0,1-1.614,0V12.1a.807.807,0,1,1,1.614,0V36.311Z" transform="translate(833.605 1238.896)" fill="#129bdb" fill-rule="evenodd"/>
  </g>
</svg>
