<svg xmlns="http://www.w3.org/2000/svg" width="40.877" height="35.943" viewBox="0 0 40.877 35.943">
  <g id="corb" transform="translate(-16.254 -24.705)">
    <g id="Gruppe_38" data-name="Gruppe 38" transform="translate(-1 5.352)">
      <path id="Pfad_97" data-name="Pfad 97" d="M1.275.149a.947.947,0,1,0,.089,1.892H5.309L10.822,29.6a3.313,3.313,0,1,0,4.123,4.123H32.236a3.31,3.31,0,1,0,0-1.892H14.945a3.312,3.312,0,0,0-2.173-2.217l-.783-3.931H35.413L41.249,9.711H8.782L7.024.9A.946.946,0,0,0,6.093.149H1.363q-.044,0-.089,0Z" transform="translate(16.882 19.204)" fill="#52affe" fill-rule="evenodd"/>
    </g>
  </g>
</svg>
