<svg xmlns="http://www.w3.org/2000/svg" width="105.095" height="101.834" viewBox="0 0 105.095 101.834">
  <g id="face_ico" data-name="face ico" transform="translate(-1052.771 -1209.366)">
    <path id="path12" d="M60.148,71.17c-.264.155-39.834.155-40.1,0S0,35.955,0,35.643,19.785.272,20.049.116s39.834-.155,40.1,0S80.2,35.331,80.2,35.643,60.412,71.013,60.148,71.17Z" transform="translate(1088.414 1209.366) rotate(30)" fill="#fff"/>
    <path id="Pfad_98" data-name="Pfad 98" d="M17.211.149A17.26,17.26,0,0,0,0,15.982a6.69,6.69,0,0,1,.975-.79,9.056,9.056,0,0,1,4.891-1.563h.05c11.748-.5,17.309-3.54,20.051-8.084a14.166,14.166,0,0,0,1.076-2.3A17.139,17.139,0,0,0,17.211.149ZM28.791,4.62a14.065,14.065,0,0,1-.958,1.966,14.758,14.758,0,0,1-3.714,4.151A14.24,14.24,0,0,0,30.3,13.057a5.29,5.29,0,0,1,1.815.756,9.914,9.914,0,0,1,2.3,1.95A17.231,17.231,0,0,0,28.791,4.62Zm-6.555,7.362c-3.729,2.157-8.981,3.492-16.27,3.8h-.05A7.779,7.779,0,0,0,2.2,16.957,3.924,3.924,0,0,0,.353,20.621a18.836,18.836,0,0,0,.4,2.807c2.17,9.676,8.72,21.9,16.455,21.9,7.922,0,14.586-12.815,16.589-22.589a6.972,6.972,0,0,0,.084-3.194,5.9,5.9,0,0,0-1.294-2.538,6.512,6.512,0,0,0-1.58-1.345,4.328,4.328,0,0,0-1.076-.471A15.983,15.983,0,0,1,22.236,11.982Zm-11.48,8.068A2.151,2.151,0,1,1,8.605,22.2,2.151,2.151,0,0,1,10.757,20.049Zm12.908,0A2.151,2.151,0,1,1,21.514,22.2,2.151,2.151,0,0,1,23.665,20.049ZM10.757,30.806H23.665c-1.022,4.788-3.148,7.53-6.454,7.53S11.779,35.594,10.757,30.806Z" transform="translate(1088.34 1237.837)" fill="#129bdb" fill-rule="evenodd"/>
  </g>
</svg>
