<svg xmlns="http://www.w3.org/2000/svg" width="106.945" height="104.502" viewBox="0 0 106.945 104.502">
  <g id="feet_ico" data-name="feet ico" transform="translate(-1354.674 -1210.074)">
    <path id="path12" d="M61.807,74.489c-.263.155-40.1-.547-40.366-.712S.635,37.093.63,36.771,19.922.632,20.185.476s40.1.547,40.366.712S81.357,37.872,81.362,38.194,62.07,74.332,61.807,74.489Z" transform="translate(1391.385 1209.366) rotate(30)" fill="#fff"/>
    <g id="feet" transform="translate(1391.246 1236.405)">
      <path id="Pfad_100" data-name="Pfad 100" d="M27.364,10.747A10.232,10.232,0,0,0,18.415,6.1a18.842,18.842,0,0,0-8.6,2.237c-11.358,6.2-5.851,20.308-5.851,20.308C7.745,41.036,12.908,47.231,19.1,47.231a11.015,11.015,0,0,0,7.228-3.1c4.13-4.991-1.033-12.907-1.2-13.079-1.721-2.926.86-7.744.86-7.744,4.647-7.4,1.549-12.391,1.377-12.563Z" transform="translate(1.643 4.398)" fill="#129bdb"/>
      <path id="Pfad_101" data-name="Pfad 101" d="M19.175,1.5C16.765,1.5,14.7,3.909,14.7,6.835s2.065,5.335,4.475,5.335,4.475-2.409,4.475-5.335S21.584,1.5,19.175,1.5Z" transform="translate(10.349 1.081)" fill="#129bdb"/>
      <ellipse id="Ellipse_3" data-name="Ellipse 3" cx="3.786" cy="4.302" rx="3.786" ry="4.302" transform="translate(17.305)" fill="#129bdb"/>
      <path id="Pfad_102" data-name="Pfad 102" d="M14.008,9.206a1.551,1.551,0,0,0,.86-.172,3.723,3.723,0,0,0,2.065-1.893,6.2,6.2,0,0,0,.172-3.1c-.688-2.237-2.754-3.614-4.647-3.1S9.533,3.7,10.221,5.936c.688,1.893,2.065,3.27,3.786,3.27ZM7.64,11.96c.344,0,.516,0,.688-.172,1.721-.516,2.581-2.409,2.065-4.475a3.718,3.718,0,0,0-4.13-2.754A4.881,4.881,0,0,0,4.542,6.108a3.853,3.853,0,0,0-.172,3.1A3.474,3.474,0,0,0,7.64,11.96Zm-1.721.86a3.344,3.344,0,0,0-3.958-2.237C.412,11.1-.277,12.992.412,14.885a3.479,3.479,0,0,0,3.1,2.409,1.29,1.29,0,0,0,.86-.172,3.3,3.3,0,0,0,1.549-4.3Z" transform="translate(-0.145 0.603)" fill="#129bdb"/>
    </g>
  </g>
</svg>
