<svg xmlns="http://www.w3.org/2000/svg" width="36.598" height="34.971" viewBox="0 0 36.598 34.971">
  <path id="Instagram" d="M36.6,21.48V35.007H28.75V22.38c0-3.175-1.131-5.333-3.971-5.333a4.3,4.3,0,0,0-4.024,2.867,5.425,5.425,0,0,0-.268,1.915V35.006H12.648s.105-21.379,0-23.593h7.841v3.344c-.011.028-.033.05-.044.081h.044v-.081a7.793,7.793,0,0,1,7.071-3.9c5.172,0,9.038,3.372,9.038,10.621ZM4.439.037C1.757.037,0,1.8,0,4.117A4.067,4.067,0,0,0,4.338,8.195h.047A4.092,4.092,0,1,0,4.439.037ZM.468,35.007H8.311v-23.6H.468v23.6Z" transform="translate(0 -0.037)" fill="#52affd" fill-rule="evenodd"/>
</svg>
