<svg xmlns="http://www.w3.org/2000/svg" width="105.404" height="102.133" viewBox="0 0 105.404 102.133">
  <g id="spray_ico" data-name="spray ico" transform="translate(-1355.771 -1209.366)">
    <path id="path12" d="M60.324,71.378c-.265.156-39.951.156-40.216,0S0,36.061,0,35.747,19.843.273,20.108.116s39.951-.155,40.216,0S80.432,35.434,80.432,35.747,60.589,71.222,60.324,71.378Z" transform="translate(1391.518 1209.366) rotate(30)" fill="#fff"/>
    <path id="Pfad_113" data-name="Pfad 113" d="M21.7,3.472H4.34a.869.869,0,0,0-.777.48L.091,10.9a.868.868,0,0,0,.777,1.256h4.34v4.518A9.55,9.55,0,0,0,0,25.173V46.006a.868.868,0,0,0,.868.868H18.229a.867.867,0,0,0,.868-.868V25.173a9.547,9.547,0,0,0-5.208-8.5V12.153h4.34a.864.864,0,0,0,.614-.254l3.472-3.472a.866.866,0,0,0,.254-.614V4.34a.868.868,0,0,0-.868-.868Zm6.944,1.736H25.173a.868.868,0,0,0,0,1.736h3.472a.868.868,0,1,0,0-1.736ZM25.173,3.472a.866.866,0,0,0,.614-.254l1.736-1.736A.868.868,0,1,0,26.3.254L24.559,1.99a.868.868,0,0,0,.614,1.482Zm.614,5.463a.868.868,0,1,0-1.228,1.227L26.3,11.9a.868.868,0,0,0,1.227-1.227L25.787,8.935Z" transform="translate(1397.722 1236.754)" fill="#129bdb"/>
  </g>
</svg>
